<svg width="1914" height="1308" xmlns="http://www.w3.org/2000/svg" xmlns:xlink="http://www.w3.org/1999/xlink" overflow="hidden"><defs><clipPath id="clip0"><rect x="1033" y="249" width="1914" height="1308"/></clipPath></defs><g clip-path="url(#clip0)" transform="translate(-1033 -249)"><path d="M1047 361.213C1047 306.971 1090.97 263 1145.21 263L2834.79 263C2889.03 263 2933 306.971 2933 361.213L2933 1306.79C2933 1361.03 2889.03 1405 2834.79 1405L1145.21 1405C1090.97 1405 1047 1361.03 1047 1306.79Z" stroke="#000000" stroke-width="27.5" stroke-miterlimit="8" fill="#FFFFFF" fill-rule="evenodd"/><path d="M1583 1543 2397.69 1543" stroke="#000000" stroke-width="27.5" stroke-miterlimit="8" fill="none" fill-rule="evenodd"/><path d="M1990 1405 1990 1542.5" stroke="#000000" stroke-width="27.5" stroke-miterlimit="8" fill="none" fill-rule="evenodd"/><path d="M1164 385.818C1164 363.827 1181.83 346 1203.82 346L1889.18 346C1911.17 346 1929 363.827 1929 385.818L1929 769.182C1929 791.173 1911.17 809 1889.18 809L1203.82 809C1181.83 809 1164 791.173 1164 769.182Z" stroke="#000000" stroke-width="27.5" stroke-miterlimit="8" fill="#FFFFFF" fill-rule="evenodd"/><text font-family="Times New Roman,Times New Roman_MSFontService,sans-serif" font-weight="400" font-size="147" transform="matrix(1 0 0 1 1366.99 632)">Client</text><path d="M13.75-3.00744e-05 13.7502 96.25-13.7498 96.25-13.75 3.00744e-05ZM41.2502 82.4999 0.000360892 165-41.2498 82.5001Z" transform="matrix(1 0 0 -1 1546 988)"/><path d="M2052 385.818C2052 363.827 2069.83 346 2091.82 346L2777.18 346C2799.17 346 2817 363.827 2817 385.818L2817 769.182C2817 791.173 2799.17 809 2777.18 809L2091.82 809C2069.83 809 2052 791.173 2052 769.182Z" stroke="#000000" stroke-width="27.5" stroke-miterlimit="8" fill="#FFFFFF" fill-rule="evenodd"/><text font-family="Times New Roman,Times New Roman_MSFontService,sans-serif" font-weight="400" font-size="147" transform="matrix(1 0 0 1 2243.15 632)">Server</text><path d="M13.75-3.00744e-05 13.7502 96.25-13.7498 96.25-13.75 3.00744e-05ZM41.2502 82.4999 0.000360892 165-41.2498 82.5001Z" transform="matrix(1 0 0 -1 2435 988)"/><path d="M1537 974 2447.51 974" stroke="#000000" stroke-width="27.5" stroke-miterlimit="8" fill="none" fill-rule="evenodd"/><path d="M1164 1106.58C1164 1096.32 1172.32 1088 1182.58 1088L2798.42 1088C2808.68 1088 2817 1096.32 2817 1106.58L2817 1285.42C2817 1295.68 2808.68 1304 2798.42 1304L1182.58 1304C1172.32 1304 1164 1295.68 1164 1285.42Z" stroke="#000000" stroke-width="27.5" stroke-miterlimit="8" fill="#FFFFFF" fill-rule="evenodd"/><text font-family="Times New Roman,Times New Roman_MSFontService,sans-serif" font-weight="400" font-size="147" transform="matrix(1 0 0 1 1228.14 1250)">Virtual Machine Manager</text><path d="M1990 964 1990 1101.5" stroke="#000000" stroke-width="27.5" stroke-miterlimit="8" fill="none" fill-rule="evenodd"/></g></svg>