<svg width="2217" height="2378" xmlns="http://www.w3.org/2000/svg" xmlns:xlink="http://www.w3.org/1999/xlink" overflow="hidden"><defs><clipPath id="clip0"><rect x="345" y="30" width="2217" height="2378"/></clipPath></defs><g clip-path="url(#clip0)" transform="translate(-345 -30)"><path d="M890 79.1672C890 61.9541 903.954 48.0001 921.167 48.0001L1395.83 48.0001C1413.05 48.0001 1427 61.9541 1427 79.1672L1427 203.833C1427 221.046 1413.05 235 1395.83 235L921.167 235C903.954 235 890 221.046 890 203.833Z" stroke="#000000" stroke-width="27.5" stroke-miterlimit="8" fill="#FFFFFF" fill-rule="evenodd"/><text font-family="Times New Roman,Times New Roman_MSFontService,sans-serif" font-weight="400" font-size="124" transform="matrix(1 0 0 1 1007.17 186)">Client</text><path d="M1158 235 1158 2320.4" stroke="#000000" stroke-width="27.5" stroke-miterlimit="8" fill="none" fill-rule="evenodd"/><path d="M2010 79.1676C2010 61.9543 2023.95 48.0001 2041.17 48.0001L2516.83 48.0001C2534.05 48.0001 2548 61.9543 2548 79.1676L2548 203.833C2548 221.046 2534.05 235 2516.83 235L2041.17 235C2023.95 235 2010 221.046 2010 203.833Z" stroke="#000000" stroke-width="27.5" stroke-miterlimit="8" fill="#FFFFFF" fill-rule="evenodd"/><text font-family="Times New Roman,Times New Roman_MSFontService,sans-serif" font-weight="400" font-size="124" transform="matrix(1 0 0 1 2117.48 186)">Server</text><path d="M2279 235 2279 2320.4" stroke="#000000" stroke-width="27.5" stroke-miterlimit="8" fill="none" fill-rule="evenodd"/><text fill="#767171" font-family="Times New Roman,Times New Roman_MSFontService,sans-serif" font-weight="400" font-size="124" transform="matrix(1 0 0 1 825.111 654)">TC<tspan font-size="124" x="158.125" y="0">P</tspan><tspan font-size="124" x="-323.125" y="149">Handshake</tspan></text><path d="M1135 1162C1114.29 1162 1097.5 1145.47 1097.5 1125.09L1097.5 757.409C1097.5 737.025 1080.71 720.5 1060 720.5 1080.71 720.5 1097.5 703.975 1097.5 683.591L1097.5 315.91C1097.5 295.525 1114.29 279 1135 279" stroke="#767171" stroke-width="13.75" stroke-miterlimit="8" fill="none" fill-rule="evenodd"/><path d="M1159.56 241.719 2202.86 521.271 2195.74 547.834 1152.44 268.282ZM2196.7 491.149 2265.71 552.346 2175.35 570.838Z"/><text font-family="Times New Roman,Times New Roman_MSFontService,sans-serif" font-weight="400" font-size="124" transform="matrix(0.965926 0.258819 -0.258819 0.965926 1578.63 486)">SYN</text><text font-family="Times New Roman,Times New Roman_MSFontService,sans-serif" font-weight="400" font-size="124" transform="matrix(0.965926 -0.258819 0.258819 0.965926 1453.83 929)">SYN, ACK</text><path d="M3.55876-13.2815 1048.6 266.738 1041.49 293.301-3.55876 13.2815ZM1042.44 236.616 1111.45 297.813 1021.09 316.305Z" transform="matrix(-1 0 0 1 2283.45 589)"/><path d="M1159.56 1172.72 2202.86 1452.27 2195.74 1478.83 1152.44 1199.28ZM2196.7 1422.15 2265.71 1483.35 2175.35 1501.84Z"/><text font-family="Times New Roman,Times New Roman_MSFontService,sans-serif" font-weight="400" font-size="124" transform="matrix(0.965926 0.258819 -0.258819 0.965926 1258.27 1331)">Client Hello, Data</text><text font-family="Times New Roman,Times New Roman_MSFontService,sans-serif" font-weight="400" font-size="124" transform="matrix(0.965926 -0.258819 0.258819 0.965926 1277.83 1949)">Server Hello, Data</text><path d="M3.55876-13.2815 1048.6 266.738 1041.49 293.301-3.55876 13.2815ZM1042.44 236.616 1111.45 297.813 1021.09 316.305Z" transform="matrix(-1 0 0 1 2283.45 1561)"/><path d="M1155.56 1939.72 2202.04 2220.12 2194.92 2246.69 1148.44 1966.28ZM2195.88 2190 2264.89 2251.2 2174.52 2269.69Z"/><text font-family="Times New Roman,Times New Roman_MSFontService,sans-serif" font-weight="400" font-size="124" transform="matrix(0.965926 0.258819 -0.258819 0.965926 1402.78 2144)">ACK, Data</text><text fill="#767171" font-family="Times New Roman,Times New Roman_MSFontService,sans-serif" font-weight="400" font-size="124" transform="matrix(1 0 0 1 818.179 2082)">Data<tspan font-size="124" x="-185.625" y="149">Transfer</tspan></text><path d="M1054 1900C1033.01 1900 1016 1883.25 1016 1862.6L1016 1577.4C1016 1556.75 998.987 1540 978 1540 998.987 1540 1016 1523.25 1016 1502.6L1016 1217.4C1016 1196.75 1033.01 1180 1054 1180" stroke="#767171" stroke-width="13.75" stroke-miterlimit="8" fill="none" fill-rule="evenodd"/><path d="M1134.93 2298C1114.24 2298 1097.47 2281.49 1097.47 2261.12L1097.47 2143.03C1097.47 2122.66 1080.69 2106.15 1060 2106.15 1080.69 2106.15 1097.47 2089.64 1097.47 2069.27L1097.47 1216.88C1097.47 1196.51 1114.24 1180 1134.93 1180" stroke="#767171" stroke-width="13.75" stroke-miterlimit="8" fill="none" fill-rule="evenodd"/><text fill="#767171" font-family="Times New Roman,Times New Roman_MSFontService,sans-serif" font-weight="400" font-size="124" transform="matrix(1 0 0 1 749.905 1507)">TLS<tspan font-size="124" x="-330" y="149">Handshake</tspan></text><path d="M1158.56 910.719 2201.86 1190.27 2194.74 1216.83 1151.44 937.281ZM2195.7 1160.15 2264.71 1221.35 2174.35 1239.84Z"/><text font-family="Times New Roman,Times New Roman_MSFontService,sans-serif" font-weight="400" font-size="124" transform="matrix(0.965926 0.258819 -0.258819 0.965926 1570.51 1153)">ACK</text></g></svg>