<svg width="2950" height="658" xmlns="http://www.w3.org/2000/svg" xmlns:xlink="http://www.w3.org/1999/xlink" overflow="hidden"><defs><clipPath id="clip0"><rect x="1052" y="968" width="2950" height="658"/></clipPath><clipPath id="clip1"><rect x="2225" y="986" width="593" height="593"/></clipPath><clipPath id="clip2"><rect x="2225" y="986" width="593" height="593"/></clipPath><clipPath id="clip3"><rect x="2225" y="986" width="593" height="593"/></clipPath><clipPath id="clip4"><rect x="3328" y="986" width="425" height="424"/></clipPath><clipPath id="clip5"><rect x="3328" y="986" width="425" height="424"/></clipPath><clipPath id="clip6"><rect x="3328" y="986" width="425" height="424"/></clipPath></defs><g clip-path="url(#clip0)" transform="translate(-1052 -968)"><g clip-path="url(#clip1)"><g clip-path="url(#clip2)"><g clip-path="url(#clip3)"><path d="M2348.34 1430.51C2354.58 1430.85 2372.77 1431 2372.77 1431L2706.03 1431C2747.04 1430.84 2780.16 1397.45 2780 1356.44 2779.84 1315.89 2747.19 1282.96 2706.64 1282.47L2700.48 1282.47C2700.42 1252.58 2685.95 1224.56 2661.63 1207.21 2636.98 1189.97 2605.55 1185.61 2577.14 1195.49 2549.24 1140.95 2482.41 1119.35 2427.87 1147.25 2390.97 1166.12 2367.67 1204 2367.46 1245.46L2367.46 1246.69C2362.62 1245.9 2357.73 1245.5 2352.83 1245.5 2301.65 1245.44 2260.11 1286.88 2260.05 1338.06 2260.03 1351.68 2263.02 1365.13 2268.79 1377.46 2283.77 1408.22 2314.19 1428.5 2348.34 1430.51ZM2288.51 1289.88C2303.9 1269.9 2327.6 1258.08 2352.82 1257.83 2357.06 1257.83 2361.29 1258.18 2365.46 1258.86L2379.79 1261.2 2379.79 1245.45C2380.13 1191 2424.54 1147.12 2479 1147.46 2515.79 1147.68 2549.4 1168.38 2566.16 1201.13L2571.06 1210.66 2581.19 1207.14C2622.8 1192.26 2668.59 1213.94 2683.47 1255.55 2686.56 1264.19 2688.14 1273.29 2688.14 1282.47L2688.14 1294.8 2706.64 1294.8C2740.85 1295.3 2768.17 1323.44 2767.66 1357.64 2767.17 1391.37 2739.76 1418.51 2706.03 1418.67L2360 1418.67 2349.01 1418.19C2304.8 1416.28 2270.51 1378.9 2272.42 1334.69 2273.12 1318.47 2278.73 1302.84 2288.51 1289.88Z" stroke="#000000" stroke-width="14.0952"/></g></g></g><path d="M3114 1036.36C3114 1009.1 3136.1 987 3163.36 987L3918.64 987C3945.9 987 3968 1009.1 3968 1036.36L3968 1511.64C3968 1538.9 3945.9 1561 3918.64 1561L3163.36 1561C3136.1 1561 3114 1538.9 3114 1511.64Z" stroke="#000000" stroke-width="27.5" stroke-miterlimit="8" fill="#FFFFFF" fill-rule="evenodd"/><text font-family="Times New Roman,Times New Roman_MSFontService,sans-serif" font-weight="400" font-size="147" transform="matrix(1 0 0 1 3168.06 1504)">AWS Server</text><g clip-path="url(#clip4)"><g clip-path="url(#clip5)"><g clip-path="url(#clip6)"><path d="M338.479 347.271 338.479 83.5209C338.479 57.8228 272.801 43.9584 211 43.9584 149.199 43.9584 83.5209 57.8228 83.5209 83.5209L83.5209 347.271C83.5209 372.969 149.199 386.833 211 386.833 272.801 386.833 338.479 372.969 338.479 347.271ZM211 52.75C278.929 52.75 329.688 69.0146 329.688 83.5209 329.688 98.0271 278.929 114.292 211 114.292 143.071 114.292 92.3125 98.0271 92.3125 83.5209 92.3125 69.0146 143.071 52.75 211 52.75ZM92.3125 98.7304C112.221 114.643 162.791 123.083 211 123.083 259.209 123.083 309.779 114.643 329.688 98.7304L329.688 171.438C329.688 185.944 278.929 202.208 211 202.208 143.071 202.208 92.3125 185.944 92.3125 171.438ZM92.3125 186.647C112.221 202.56 162.791 211 211 211 259.209 211 309.779 202.56 329.688 186.647L329.688 259.354C329.688 273.861 278.929 290.125 211 290.125 143.071 290.125 92.3125 273.861 92.3125 259.354ZM92.3125 347.271 92.3125 274.564C112.221 290.477 162.791 298.917 211 298.917 259.209 298.917 309.779 290.477 329.688 274.564L329.688 347.271C329.688 361.777 278.929 378.042 211 378.042 143.071 378.042 92.3125 361.777 92.3125 347.271Z" stroke="#000000" stroke-width="6.91804" transform="matrix(1.00237 0 0 1 3329 987)"/><path d="M307.708 158.25C307.708 163.106 303.772 167.042 298.917 167.042 294.061 167.042 290.125 163.106 290.125 158.25 290.125 153.395 294.061 149.458 298.917 149.458 303.772 149.458 307.708 153.395 307.708 158.25Z" stroke="#000000" stroke-width="6.91804" transform="matrix(1.00237 0 0 1 3329 987)"/><path d="M307.708 246.167C307.708 251.022 303.772 254.958 298.917 254.958 294.061 254.958 290.125 251.022 290.125 246.167 290.125 241.311 294.061 237.375 298.917 237.375 303.772 237.375 307.708 241.311 307.708 246.167Z" stroke="#000000" stroke-width="6.91804" transform="matrix(1.00237 0 0 1 3329 987)"/><path d="M307.708 334.083C307.708 338.939 303.772 342.875 298.917 342.875 294.061 342.875 290.125 338.939 290.125 334.083 290.125 329.228 294.061 325.292 298.917 325.292 303.772 325.292 307.708 329.228 307.708 334.083Z" stroke="#000000" stroke-width="6.91804" transform="matrix(1.00237 0 0 1 3329 987)"/></g></g></g><path d="M1066 1026.46C1066 1001.91 1085.91 982 1110.46 982L1875.54 982C1900.09 982 1920 1001.91 1920 1026.46L1920 1454.54C1920 1479.09 1900.09 1499 1875.54 1499L1110.46 1499C1085.91 1499 1066 1479.09 1066 1454.54Z" stroke="#000000" stroke-width="27.5" stroke-miterlimit="8" fill="#FFFFFF" fill-rule="evenodd"/><text font-family="Times New Roman,Times New Roman_MSFontService,sans-serif" font-weight="400" font-size="147" transform="matrix(1 0 0 1 1313.95 1295)">Client</text><path d="M1309 1562 1678.12 1562" stroke="#000000" stroke-width="27.5" stroke-miterlimit="8" fill="none" fill-rule="evenodd"/><path d="M1493 1499 1493 1561.3" stroke="#000000" stroke-width="27.5" stroke-miterlimit="8" fill="none" fill-rule="evenodd"/><path d="M2003.75 1307.25 2185.63 1307.25 2185.63 1334.75 2003.75 1334.75ZM2017.5 1362.25 1935 1321 2017.5 1279.75ZM2171.88 1279.75 2254.38 1321 2171.88 1362.25Z"/><path d="M2848.75 1307.25 3030.63 1307.25 3030.63 1334.75 2848.75 1334.75ZM2862.5 1362.25 2780 1321 2862.5 1279.75ZM3016.88 1279.75 3099.38 1321 3016.88 1362.25Z"/></g></svg>