<svg width="2134" height="2305" xmlns="http://www.w3.org/2000/svg" xmlns:xlink="http://www.w3.org/1999/xlink" overflow="hidden"><defs><clipPath id="clip0"><rect x="428" y="30" width="2134" height="2305"/></clipPath></defs><g clip-path="url(#clip0)" transform="translate(-428 -30)"><path d="M890 79.1672C890 61.9541 903.954 48.0001 921.167 48.0001L1395.83 48.0001C1413.05 48.0001 1427 61.9541 1427 79.1672L1427 203.833C1427 221.046 1413.05 235 1395.83 235L921.167 235C903.954 235 890 221.046 890 203.833Z" stroke="#000000" stroke-width="27.5" stroke-miterlimit="8" fill="#FFFFFF" fill-rule="evenodd"/><text font-family="Times New Roman,Times New Roman_MSFontService,sans-serif" font-weight="400" font-size="124" transform="matrix(1 0 0 1 1007.17 186)">Client</text><path d="M1158 235 1158 2320.4" stroke="#000000" stroke-width="27.5" stroke-miterlimit="8" fill="none" fill-rule="evenodd"/><path d="M2010 79.1676C2010 61.9543 2023.95 48.0001 2041.17 48.0001L2516.83 48.0001C2534.05 48.0001 2548 61.9543 2548 79.1676L2548 203.833C2548 221.046 2534.05 235 2516.83 235L2041.17 235C2023.95 235 2010 221.046 2010 203.833Z" stroke="#000000" stroke-width="27.5" stroke-miterlimit="8" fill="#FFFFFF" fill-rule="evenodd"/><text font-family="Times New Roman,Times New Roman_MSFontService,sans-serif" font-weight="400" font-size="124" transform="matrix(1 0 0 1 2117.48 186)">Server</text><path d="M2279 235 2279 2320.4" stroke="#000000" stroke-width="27.5" stroke-miterlimit="8" fill="none" fill-rule="evenodd"/><text fill="#767171" font-family="Times New Roman,Times New Roman_MSFontService,sans-serif" font-weight="400" font-size="124" transform="matrix(1 0 0 1 750.47 608)">QUIC<tspan font-size="124" x="-247.5" y="149">Handshake</tspan></text><path d="M1135 993C1114.29 993 1097.5 976.475 1097.5 956.091L1097.5 671.91C1097.5 651.525 1080.71 635 1060 635 1080.71 635 1097.5 618.475 1097.5 598.091L1097.5 313.91C1097.5 293.525 1114.29 277 1135 277" stroke="#767171" stroke-width="13.75" stroke-miterlimit="8" fill="none" fill-rule="evenodd"/><path d="M1159.56 240.719 2202.86 520.271 2195.74 546.834 1152.44 267.281ZM2196.7 490.149 2265.71 551.346 2175.35 569.838Z"/><text font-family="Times New Roman,Times New Roman_MSFontService,sans-serif" font-weight="400" font-size="124" transform="matrix(0.965926 0.258819 -0.258819 0.965926 1402.44 438)">Client Hello</text><text font-family="Times New Roman,Times New Roman_MSFontService,sans-serif" font-weight="400" font-size="124" transform="matrix(0.965926 -0.258819 0.258819 0.965926 1422 978)">Server Hello</text><path d="M3.55876-13.2815 1048.6 266.738 1041.49 293.301-3.55876 13.2815ZM1042.44 236.616 1111.45 297.813 1021.09 316.305Z" transform="matrix(-1 0 0 1 2283.45 630)"/><path d="M1155.56 1007.72 2202.04 1288.12 2194.92 1314.69 1148.44 1034.28ZM2195.88 1258 2264.89 1319.2 2174.52 1337.69Z"/><text font-family="Times New Roman,Times New Roman_MSFontService,sans-serif" font-weight="400" font-size="124" transform="matrix(0.965926 0.258819 -0.258819 0.965926 1392.72 1210)">ACK, <tspan fill="#548235" font-weight="700" font-size="124" x="322.962" y="-0.609436">Data</tspan></text><text fill="#548235" font-family="Times New Roman,Times New Roman_MSFontService,sans-serif" font-weight="400" font-size="124" transform="matrix(1 0 0 1 819.325 1179)">Data<tspan font-size="124" x="-185.625" y="149">Transfer</tspan></text><path d="M1135 1378C1114.29 1378 1097.5 1361.48 1097.5 1341.09L1097.5 1231.91C1097.5 1211.52 1080.71 1195 1060 1195 1080.71 1195 1097.5 1178.48 1097.5 1158.09L1097.5 1048.91C1097.5 1028.52 1114.29 1012 1135 1012" stroke="#548235" stroke-width="13.75" stroke-miterlimit="8" fill="none" fill-rule="evenodd"/></g></svg>