<svg width="2217" height="2305" xmlns="http://www.w3.org/2000/svg" xmlns:xlink="http://www.w3.org/1999/xlink" overflow="hidden"><defs><clipPath id="clip0"><rect x="345" y="30" width="2217" height="2305"/></clipPath></defs><g clip-path="url(#clip0)" transform="translate(-345 -30)"><path d="M890 79.1672C890 61.9541 903.954 48.0001 921.167 48.0001L1395.83 48.0001C1413.05 48.0001 1427 61.9541 1427 79.1672L1427 203.833C1427 221.046 1413.05 235 1395.83 235L921.167 235C903.954 235 890 221.046 890 203.833Z" stroke="#000000" stroke-width="27.5" stroke-miterlimit="8" fill="#FFFFFF" fill-rule="evenodd"/><text font-family="Times New Roman,Times New Roman_MSFontService,sans-serif" font-weight="400" font-size="124" transform="matrix(1 0 0 1 1007.17 186)">Client</text><path d="M1158 235 1158 2320.4" stroke="#000000" stroke-width="27.5" stroke-miterlimit="8" fill="none" fill-rule="evenodd"/><path d="M2010 79.1676C2010 61.9543 2023.95 48.0001 2041.17 48.0001L2516.83 48.0001C2534.05 48.0001 2548 61.9543 2548 79.1676L2548 203.833C2548 221.046 2534.05 235 2516.83 235L2041.17 235C2023.95 235 2010 221.046 2010 203.833Z" stroke="#000000" stroke-width="27.5" stroke-miterlimit="8" fill="#FFFFFF" fill-rule="evenodd"/><text font-family="Times New Roman,Times New Roman_MSFontService,sans-serif" font-weight="400" font-size="124" transform="matrix(1 0 0 1 2117.48 186)">Server</text><path d="M2279 235 2279 2320.4" stroke="#000000" stroke-width="27.5" stroke-miterlimit="8" fill="none" fill-rule="evenodd"/><path d="M1159.56 240.719 2202.86 520.271 2195.74 546.834 1152.44 267.281ZM2196.7 490.149 2265.71 551.346 2175.35 569.838Z"/><text font-family="Times New Roman,Times New Roman_MSFontService,sans-serif" font-weight="400" font-size="124" transform="matrix(0.965926 0.258819 -0.258819 0.965926 1248.21 396)">Client Hello, <tspan fill="#548235" font-weight="700" font-size="124" x="670.445" y="0.492966">Data</tspan></text><text font-family="Times New Roman,Times New Roman_MSFontService,sans-serif" font-weight="400" font-size="124" transform="matrix(0.965926 -0.258819 0.258819 0.965926 1267.77 1020)">Server Hello, <tspan fill="#548235" font-weight="700" font-size="124" x="690.982" y="-0.166351">Data</tspan></text><path d="M3.55876-13.2815 1048.6 266.738 1041.49 293.301-3.55876 13.2815ZM1042.44 236.616 1111.45 297.813 1021.09 316.305Z" transform="matrix(-1 0 0 1 2283.45 630)"/><path d="M1155.56 1007.72 2202.04 1288.12 2194.92 1314.69 1148.44 1034.28ZM2195.88 1258 2264.89 1319.2 2174.52 1337.69Z"/><text font-family="Times New Roman,Times New Roman_MSFontService,sans-serif" font-weight="400" font-size="124" transform="matrix(0.965926 0.258819 -0.258819 0.965926 1392.72 1210)">ACK, <tspan fill="#548235" font-weight="700" font-size="124" x="322.962" y="-0.609436">Data</tspan></text><text fill="#548235" font-family="Times New Roman,Times New Roman_MSFontService,sans-serif" font-weight="400" font-size="124" transform="matrix(1 0 0 1 819.325 1179)">Data<tspan font-size="124" x="-185.625" y="149">Transfer</tspan></text><path d="M1054 998C1033.01 998 1016 981.255 1016 960.598L1016 675.402C1016 654.745 998.987 638 978 638 998.987 638 1016 621.255 1016 600.598L1016 315.402C1016 294.745 1033.01 278 1054 278" stroke="#767171" stroke-width="13.75" stroke-miterlimit="8" fill="none" fill-rule="evenodd"/><path d="M1135 1396C1114.29 1396 1097.5 1379.47 1097.5 1359.09L1097.5 1241.06C1097.5 1220.68 1080.71 1204.15 1060 1204.15 1080.71 1204.15 1097.5 1187.63 1097.5 1167.24L1097.5 314.91C1097.5 294.525 1114.29 278 1135 278" stroke="#548235" stroke-width="13.75" stroke-miterlimit="8" fill="none" fill-rule="evenodd"/><text fill="#767171" font-family="Times New Roman,Times New Roman_MSFontService,sans-serif" font-weight="400" font-size="124" transform="matrix(1 0 0 1 667.405 606)">QUIC<tspan font-size="124" x="-247.5" y="149">Handshake</tspan></text></g></svg>