<svg width="2134" height="2378" xmlns="http://www.w3.org/2000/svg" xmlns:xlink="http://www.w3.org/1999/xlink" overflow="hidden"><defs><clipPath id="clip0"><rect x="428" y="30" width="2134" height="2378"/></clipPath></defs><g clip-path="url(#clip0)" transform="translate(-428 -30)"><path d="M890 79.1672C890 61.9541 903.954 48.0001 921.167 48.0001L1395.83 48.0001C1413.05 48.0001 1427 61.9541 1427 79.1672L1427 203.833C1427 221.046 1413.05 235 1395.83 235L921.167 235C903.954 235 890 221.046 890 203.833Z" stroke="#000000" stroke-width="27.5" stroke-miterlimit="8" fill="#FFFFFF" fill-rule="evenodd"/><text font-family="Times New Roman,Times New Roman_MSFontService,sans-serif" font-weight="400" font-size="124" transform="matrix(1 0 0 1 1007.17 186)">Client</text><path d="M1158 235 1158 2320.4" stroke="#000000" stroke-width="27.5" stroke-miterlimit="8" fill="none" fill-rule="evenodd"/><path d="M2010 79.1676C2010 61.9543 2023.95 48.0001 2041.17 48.0001L2516.83 48.0001C2534.05 48.0001 2548 61.9543 2548 79.1676L2548 203.833C2548 221.046 2534.05 235 2516.83 235L2041.17 235C2023.95 235 2010 221.046 2010 203.833Z" stroke="#000000" stroke-width="27.5" stroke-miterlimit="8" fill="#FFFFFF" fill-rule="evenodd"/><text font-family="Times New Roman,Times New Roman_MSFontService,sans-serif" font-weight="400" font-size="124" transform="matrix(1 0 0 1 2117.48 186)">Server</text><path d="M2279 235 2279 2320.4" stroke="#000000" stroke-width="27.5" stroke-miterlimit="8" fill="none" fill-rule="evenodd"/><text fill="#767171" font-family="Times New Roman,Times New Roman_MSFontService,sans-serif" font-weight="400" font-size="124" transform="matrix(1 0 0 1 826.257 654)">TC<tspan font-size="124" x="158.125" y="0">P</tspan><tspan font-size="124" x="-323.125" y="149">Handshake</tspan></text><path d="M1135 1162C1114.29 1162 1097.5 1145.47 1097.5 1125.09L1097.5 757.409C1097.5 737.025 1080.71 720.5 1060 720.5 1080.71 720.5 1097.5 703.975 1097.5 683.591L1097.5 315.91C1097.5 295.525 1114.29 279 1135 279" stroke="#767171" stroke-width="13.75" stroke-miterlimit="8" fill="none" fill-rule="evenodd"/><path d="M1159.56 241.719 2202.86 521.271 2195.74 547.834 1152.44 268.282ZM2196.7 491.149 2265.71 552.346 2175.35 570.838Z"/><text font-family="Times New Roman,Times New Roman_MSFontService,sans-serif" font-weight="400" font-size="124" transform="matrix(0.965926 0.258819 -0.258819 0.965926 1578.63 486)">SYN</text><text font-family="Times New Roman,Times New Roman_MSFontService,sans-serif" font-weight="400" font-size="124" transform="matrix(0.965926 -0.258819 0.258819 0.965926 1453.83 929)">SYN, ACK</text><path d="M3.55876-13.2815 1048.6 266.738 1041.49 293.301-3.55876 13.2815ZM1042.44 236.616 1111.45 297.813 1021.09 316.305Z" transform="matrix(-1 0 0 1 2283.45 589)"/><path d="M1159.56 1172.72 2202.86 1452.27 2195.74 1478.83 1152.44 1199.28ZM2196.7 1422.15 2265.71 1483.35 2175.35 1501.84Z"/><text font-family="Times New Roman,Times New Roman_MSFontService,sans-serif" font-weight="400" font-size="124" transform="matrix(0.965926 0.258819 -0.258819 0.965926 1402.44 1369)">Client <tspan font-size="124" x="333.619" y="0.676163">Hello</tspan></text><text font-family="Times New Roman,Times New Roman_MSFontService,sans-serif" font-weight="400" font-size="124" transform="matrix(0.965926 -0.258819 0.258819 0.965926 1422 1910)">Server <tspan font-size="124" x="354.156" y="-0.349533">Hello</tspan></text><path d="M3.55876-13.2815 1048.6 266.738 1041.49 293.301-3.55876 13.2815ZM1042.44 236.616 1111.45 297.813 1021.09 316.305Z" transform="matrix(-1 0 0 1 2283.45 1561)"/><path d="M1155.56 1939.72 2202.04 2220.12 2194.92 2246.69 1148.44 1966.28ZM2195.88 2190 2264.89 2251.2 2174.52 2269.69Z"/><text font-family="Times New Roman,Times New Roman_MSFontService,sans-serif" font-weight="400" font-size="124" transform="matrix(0.965926 0.258819 -0.258819 0.965926 1402.78 2144)">ACK, Data</text><text fill="#767171" font-family="Times New Roman,Times New Roman_MSFontService,sans-serif" font-weight="400" font-size="124" transform="matrix(1 0 0 1 819.325 2082)">Data<tspan font-size="124" x="-185.625" y="149">Transfer</tspan></text><path d="M1135 1900C1114.29 1900 1097.5 1883.48 1097.5 1863.09L1097.5 1576.91C1097.5 1556.52 1080.71 1540 1060 1540 1080.71 1540 1097.5 1523.48 1097.5 1503.09L1097.5 1216.91C1097.5 1196.53 1114.29 1180 1135 1180" stroke="#767171" stroke-width="13.75" stroke-miterlimit="8" fill="none" fill-rule="evenodd"/><text fill="#767171" font-family="Times New Roman,Times New Roman_MSFontService,sans-serif" font-weight="400" font-size="124" transform="matrix(1 0 0 1 833.132 1507)">TLS<tspan font-size="124" x="-330" y="149">Handshake</tspan></text><path d="M1158.56 910.719 2201.86 1190.27 2194.74 1216.83 1151.44 937.281ZM2195.7 1160.15 2264.71 1221.35 2174.35 1239.84Z"/><text font-family="Times New Roman,Times New Roman_MSFontService,sans-serif" font-weight="400" font-size="124" transform="matrix(0.965926 0.258819 -0.258819 0.965926 1570.51 1153)">ACK</text><path d="M1135 2281C1114.29 2281 1097.5 2264.48 1097.5 2244.09L1097.5 2134.91C1097.5 2114.52 1080.71 2098 1060 2098 1080.71 2098 1097.5 2081.48 1097.5 2061.09L1097.5 1951.91C1097.5 1931.52 1114.29 1915 1135 1915" stroke="#767171" stroke-width="13.75" stroke-miterlimit="8" fill="none" fill-rule="evenodd"/></g></svg>