<svg width="3810" height="1794" xmlns="http://www.w3.org/2000/svg" xmlns:xlink="http://www.w3.org/1999/xlink" xml:space="preserve" overflow="hidden"><defs><clipPath id="clip0"><rect x="347" y="346" width="3810" height="1794"/></clipPath></defs><g clip-path="url(#clip0)" transform="translate(-347 -346)"><rect x="1307" y="523" width="867" height="966" fill="#DEEBF7"/><path d="M361 414.334C361 384.326 385.326 360 415.334 360L1175.67 360C1205.67 360 1230 384.326 1230 414.334L1230 631.666C1230 661.674 1205.67 686 1175.67 686L415.334 686C385.326 686 361 661.674 361 631.666Z" stroke="#000000" stroke-width="27.5" stroke-miterlimit="8" fill="#FFFFFF" fill-rule="evenodd"/><text font-family="Times New Roman,Times New Roman_MSFontService,sans-serif" font-weight="400" font-size="128" transform="matrix(1 0 0 1 584.632 570)">HTTP/2</text><path d="M361 894.335C361 864.326 385.326 840 415.334 840L1175.67 840C1205.67 840 1230 864.326 1230 894.335L1230 1111.67C1230 1141.67 1205.67 1166 1175.67 1166L415.334 1166C385.326 1166 361 1141.67 361 1111.67Z" stroke="#000000" stroke-width="27.5" stroke-miterlimit="8" fill="#FFFFFF" fill-rule="evenodd"/><text font-family="Times New Roman,Times New Roman_MSFontService,sans-serif" font-weight="400" font-size="128" transform="matrix(1 0 0 1 680.882 1050)">TLS</text><path d="M361 1374.33C361 1344.33 385.326 1320 415.334 1320L1175.67 1320C1205.67 1320 1230 1344.33 1230 1374.33L1230 1591.67C1230 1621.67 1205.67 1646 1175.67 1646L415.334 1646C385.326 1646 361 1621.67 361 1591.67Z" stroke="#000000" stroke-width="27.5" stroke-miterlimit="8" fill="#FFFFFF" fill-rule="evenodd"/><text font-family="Times New Roman,Times New Roman_MSFontService,sans-serif" font-weight="400" font-size="128" transform="matrix(1 0 0 1 677.445 1530)">TCP</text><path d="M361 1855.17C361 1825.25 385.252 1801 415.168 1801L2121.83 1801C2151.75 1801 2176 1825.25 2176 1855.17L2176 2071.83C2176 2101.75 2151.75 2126 2121.83 2126L415.168 2126C385.252 2126 361 2101.75 361 2071.83Z" stroke="#000000" stroke-width="27.5" stroke-miterlimit="8" fill="#FFFFFF" fill-rule="evenodd"/><text font-family="Times New Roman,Times New Roman_MSFontService,sans-serif" font-weight="400" font-size="128" transform="matrix(1 0 0 1 1211.07 2010)">IP</text><text font-family="Times New Roman,Times New Roman_MSFontService,sans-serif" font-weight="400" font-size="128" transform="matrix(1 0 0 1 1584.57 1050)">QUIC</text><path d="M1307 523 1307 1483.39" stroke="#2F5597" stroke-width="27.5" stroke-miterlimit="8" fill="none" fill-rule="evenodd"/><path d="M2176 523 2176 1483.39" stroke="#2F5597" stroke-width="27.5" stroke-miterlimit="8" fill="none" fill-rule="evenodd"/><path d="M1307 1374.33C1307 1344.33 1331.33 1320 1361.33 1320L2121.67 1320C2151.67 1320 2176 1344.33 2176 1374.33L2176 1591.67C2176 1621.67 2151.67 1646 2121.67 1646L1361.33 1646C1331.33 1646 1307 1621.67 1307 1591.67Z" stroke="#000000" stroke-width="27.5" stroke-miterlimit="8" fill="#FFFFFF" fill-rule="evenodd"/><text font-family="Times New Roman,Times New Roman_MSFontService,sans-serif" font-weight="400" font-size="128" transform="matrix(1 0 0 1 1612.92 1530)">UDP</text><path d="M1307 414.334C1307 384.326 1331.33 360 1361.33 360L2121.67 360C2151.67 360 2176 384.326 2176 414.334L2176 631.666C2176 661.674 2151.67 686 2121.67 686L1361.33 686C1331.33 686 1307 661.674 1307 631.666Z" stroke="#000000" stroke-width="27.5" stroke-miterlimit="8" fill="#FFFFFF" fill-rule="evenodd"/><text font-family="Times New Roman,Times New Roman_MSFontService,sans-serif" font-weight="400" font-size="128" transform="matrix(1 0 0 1 1531 570)">HTTP/3</text><path d="M358 1243 4142.11 1243" stroke="#000000" stroke-width="27.5" stroke-miterlimit="8" stroke-dasharray="27.5 27.5" fill="none" fill-rule="evenodd"/><path d="M358 1723 4142.11 1723" stroke="#000000" stroke-width="27.5" stroke-miterlimit="8" stroke-dasharray="27.5 27.5" fill="none" fill-rule="evenodd"/><path d="M358 763 4142.11 763" stroke="#000000" stroke-width="27.5" stroke-miterlimit="8" stroke-dasharray="27.5 27.5" fill="none" fill-rule="evenodd"/><text font-family="Times New Roman,Times New Roman_MSFontService,sans-serif" font-weight="400" font-size="128" transform="matrix(1 0 0 1 2629.2 558)">Application Layer</text><text font-family="Times New Roman,Times New Roman_MSFontService,sans-serif" font-weight="400" font-size="128" transform="matrix(1 0 0 1 2752.42 1038)">Session Layer</text><text font-family="Times New Roman,Times New Roman_MSFontService,sans-serif" font-weight="400" font-size="128" transform="matrix(1 0 0 1 2693.7 1518)">Transport Layer</text><text font-family="Times New Roman,Times New Roman_MSFontService,sans-serif" font-weight="400" font-size="128" transform="matrix(1 0 0 1 2719.73 1998)">Network Layer</text></g></svg>